<?xml version="1.0" encoding="utf-8"?>
<!-- Generator: Adobe Illustrator 16.0.0, SVG Export Plug-In . SVG Version: 6.00 Build 0)  -->
<!DOCTYPE svg PUBLIC "-//W3C//DTD SVG 1.1//EN" "http://www.w3.org/Graphics/SVG/1.1/DTD/svg11.dtd">
<svg version="1.1" xmlns="http://www.w3.org/2000/svg" xmlns:xlink="http://www.w3.org/1999/xlink" x="0px" y="0px" width="960px"
	 height="560px" viewBox="0 0 960 560" enable-background="new 0 0 960 560" xml:space="preserve">
<g id="Layer_2">
</g>
<g id="Layer_1">
	<g>
		<path d="M577.27,245.054c0,80.106-64.938,145.044-145.044,145.044S287.181,325.16,287.181,245.054S352.119,100.01,432.225,100.01
			S577.27,164.948,577.27,245.054z M432.225,145.955c-54.731,0-99.099,44.368-99.099,99.099s44.368,99.099,99.099,99.099
			s99.099-44.368,99.099-99.099S486.956,145.955,432.225,145.955z"/>
		<g>
			<rect x="566" y="237" width="70" height="22"/>
			<rect x="590" y="260.999" transform="matrix(-0.0034 1 -1 -0.0034 899.1509 -352.0593)" width="69.999" height="22"/>
		</g>
		<g>
			<rect x="393.697" y="402.817" transform="matrix(-0.0034 1 -1 -0.0034 843.9889 -13.4509)" width="70" height="22"/>
			<rect x="369.615" y="426.734" transform="matrix(-1 -0.0069 0.0069 -1 806.2036 878.2469)" width="70" height="22.001"/>
		</g>
		<g>
			<rect x="228.453" y="230.995" transform="matrix(-1 -6.696303e-04 6.696303e-04 -1 526.7432 484.1656)" width="70" height="22"/>
			<rect x="204.47" y="206.98" transform="matrix(0.0041 -1 1 0.0041 20.5058 456.5499)" width="69.999" height="22"/>
		</g>
		<g>
			<rect x="400.867" y="65.293" transform="matrix(0.0041 -1 1 0.0041 357.781 511.8425)" width="70.001" height="22"/>
			<rect x="424.965" y="41.393" transform="matrix(1 0.0076 -0.0076 1 0.4101 -3.4829)" width="70" height="22"/>
		</g>
		<g>
			<rect x="541.519" y="321.648" transform="matrix(0.8638 0.5039 -0.5039 0.8638 246.17 -245.1913)" width="70" height="22"/>
			
				<rect x="550.155" y="354.471" transform="matrix(-0.5069 0.862 -0.862 -0.5069 1196.8015 46.3124)" width="69.999" height="21.999"/>
		</g>
		<g>
			<rect x="309.133" y="378.046" transform="matrix(-0.5069 0.862 -0.862 -0.5069 853.9322 289.6047)" width="70" height="22"/>
			
				<rect x="276.28" y="386.569" transform="matrix(-0.8603 -0.5099 0.5099 -0.8603 376.3591 898.2898)" width="69.999" height="22.001"/>
		</g>
		<g>
			
				<rect x="252.988" y="146.364" transform="matrix(-0.8634 -0.5045 0.5045 -0.8634 457.249 438.5242)" width="70" height="21.999"/>
			
				<rect x="244.374" y="113.535" transform="matrix(0.5075 -0.8617 0.8617 0.5075 30.2915 302.0654)" width="69.998" height="22.001"/>
		</g>
		<g>
			<rect x="485.411" y="90.122" transform="matrix(0.5075 -0.8617 0.8617 0.5075 169.1873 498.231)" width="70" height="22.001"/>
			
				<rect x="518.27" y="81.622" transform="matrix(0.8599 0.5104 -0.5104 0.8599 124.7837 -269.4358)" width="69.999" height="21.999"/>
		</g>
		<g>
			<rect x="480.581" y="380.837" transform="matrix(0.5088 0.8609 -0.8609 0.5088 590.5698 -251.3866)" width="70" height="22"/>
			
				<rect x="472.133" y="413.709" transform="matrix(-0.8626 0.5058 -0.5058 -0.8626 1159.4309 534.5536)" width="69.998" height="21.999"/>
		</g>
		<g>
			<rect x="250.163" y="316.873" transform="matrix(-0.8626 0.5058 -0.5058 -0.8626 697.002 466.4627)" width="70" height="22"/>
			
				<rect x="217.321" y="308.31" transform="matrix(-0.5029 -0.8644 0.8644 -0.5029 103.2026 697.9775)" width="69.999" height="22.002"/>
		</g>
		<g>
			
				<rect x="314.006" y="87.193" transform="matrix(-0.5082 -0.8612 0.8612 -0.5082 441.8123 448.6696)" width="69.999" height="21.999"/>
			<rect x="322.478" y="54.327" transform="matrix(0.863 -0.5053 0.5053 0.863 15.9786 189.57)" width="69.998" height="22"/>
		</g>
		<g>
			<rect x="544.38" y="151.312" transform="matrix(0.863 -0.5053 0.5053 0.863 -2.6163 314.9775)" width="70" height="22"/>
			
				<rect x="577.217" y="159.897" transform="matrix(0.5023 0.8647 -0.8647 0.5023 452.4867 -444.3278)" width="69.999" height="21.999"/>
		</g>
	</g>
</g>
</svg>
