<?xml version="1.0" encoding="utf-8"?>
<!-- Generator: Adobe Illustrator 16.0.0, SVG Export Plug-In . SVG Version: 6.00 Build 0)  -->
<!DOCTYPE svg PUBLIC "-//W3C//DTD SVG 1.1//EN" "http://www.w3.org/Graphics/SVG/1.1/DTD/svg11.dtd">
<svg version="1.1" id="Layer_1" xmlns="http://www.w3.org/2000/svg" xmlns:xlink="http://www.w3.org/1999/xlink" x="0px" y="0px"
	 width="600px" height="600px" viewBox="0 0 600 600" enable-background="new 0 0 600 600" xml:space="preserve">
<g>
	<g id="Layer_2">
	</g>
	<g>
		<g id="Layer_1_1_">
			<g>
				<path d="M508.741,299.293c0,115.754-93.837,209.588-209.591,209.588c-115.752,0-209.589-93.834-209.589-209.588
					c0-115.752,93.836-209.587,209.587-209.587C414.902,89.706,508.741,183.541,508.741,299.293z M299.149,156.096
					c-79.085,0-143.197,64.113-143.197,143.198c0,79.086,64.112,143.2,143.197,143.2c79.089,0,143.2-64.113,143.2-143.2
					C442.35,220.209,378.238,156.096,299.149,156.096z"/>
				<g>
					<rect x="492.455" y="287.656" width="101.15" height="31.792"/>
					<rect x="527.188" y="322.358" transform="matrix(-0.0034 1 -1 -0.0034 917.9689 -238.3616)" width="101.151" height="31.794"/>
				</g>
				<g>
					<rect x="243.509" y="527.297" transform="matrix(-0.0034 1 -1 -0.0034 838.2765 250.9582)" width="101.153" height="31.792"/>
					<rect x="208.68" y="561.811" transform="matrix(-1 -0.0069 0.0069 -1 514.5339 1157.1869)" width="101.156" height="31.795"/>
				</g>
				<g>
					<rect x="4.699" y="278.978" width="101.15" height="31.79"/>
					<rect x="-29.96" y="244.271" transform="matrix(0.0041 -1 1 0.0041 -239.6345 279.7143)" width="101.149" height="31.791"/>
				</g>
				<g>
					<rect x="253.828" y="39.535" transform="matrix(0.0041 -1 1 0.0041 247.7265 359.6049)" width="101.153" height="31.791"/>
					<rect x="288.665" y="5.024" transform="matrix(1 0.0076 -0.0076 1 0.1688 -2.5785)" width="101.158" height="31.791"/>
				</g>
				<g>
					
						<rect x="457.103" y="409.965" transform="matrix(0.8638 0.5039 -0.5039 0.8638 283.7397 -197.7963)" width="101.159" height="31.792"/>
					
						<rect x="469.552" y="457.384" transform="matrix(-0.5069 0.862 -0.862 -0.5069 1191.7465 264.8293)" width="101.148" height="31.79"/>
				</g>
				<g>
					
						<rect x="121.284" y="491.452" transform="matrix(-0.5069 0.862 -0.862 -0.5069 696.306 616.3811)" width="101.148" height="31.788"/>
					
						<rect x="73.8" y="503.765" transform="matrix(-0.8602 -0.5099 0.5099 -0.8602 -33.5864 1030.1195)" width="101.16" height="31.795"/>
				</g>
				<g>
					
						<rect x="40.157" y="156.69" transform="matrix(-0.8634 -0.5045 0.5045 -0.8634 81.9998 367.3698)" width="101.148" height="31.789"/>
					
						<rect x="27.713" y="109.242" transform="matrix(0.5075 -0.8617 0.8617 0.5075 -69.2675 129.0938)" width="101.156" height="31.794"/>
				</g>
				<g>
					
						<rect x="376.019" y="75.414" transform="matrix(0.5075 -0.8617 0.8617 0.5075 131.4304 412.5588)" width="101.158" height="31.795"/>
					
						<rect x="423.497" y="63.108" transform="matrix(0.8599 0.5104 -0.5104 0.8599 106.7291 -230.908)" width="101.143" height="31.788"/>
				</g>
				<g>
					
						<rect x="369.01" y="495.503" transform="matrix(0.5088 0.8609 -0.8609 0.5088 646.3644 -110.0139)" width="101.153" height="31.794"/>
					
						<rect x="356.838" y="542.986" transform="matrix(-0.8626 0.5058 -0.5058 -0.8626 1041.5424 834.9152)" width="101.137" height="31.784"/>
				</g>
				<g>
					
						<rect x="36.097" y="403.058" transform="matrix(-0.8626 0.5058 -0.5058 -0.8626 373.3444 736.5144)" width="101.14" height="31.786"/>
					
						<rect x="-11.403" y="390.677" transform="matrix(-0.5029 -0.8644 0.8644 -0.5029 -292.549 644.8935)" width="101.159" height="31.796"/>
				</g>
				<g>
					
						<rect x="128.333" y="71.197" transform="matrix(-0.5082 -0.8612 0.8612 -0.5082 194.8226 285.4294)" width="101.143" height="31.787"/>
					
						<rect x="140.573" y="23.677" transform="matrix(0.863 -0.5053 0.5053 0.863 6.2004 102.0082)" width="101.157" height="31.794"/>
				</g>
				<g>
					
						<rect x="461.222" y="163.817" transform="matrix(0.863 -0.5053 0.5053 0.863 -20.666 283.232)" width="101.158" height="31.794"/>
					
						<rect x="508.679" y="176.239" transform="matrix(0.5023 0.8647 -0.8647 0.5023 444.4847 -387.9598)" width="101.15" height="31.79"/>
				</g>
			</g>
		</g>
		<g>
			<circle cx="299.15" cy="299.295" r="122.33"/>
			<path fill="#FFFFFF" d="M299.151,422.347c-67.853,0-123.054-55.203-123.054-123.053c0-67.852,55.201-123.053,123.054-123.053
				c67.851,0,123.052,55.201,123.052,123.053S367.002,422.347,299.151,422.347z M299.151,177.686
				c-67.054,0-121.608,54.552-121.608,121.607c0,67.057,54.554,121.607,121.608,121.607c67.054,0,121.608-54.55,121.608-121.607
				C420.76,232.238,366.205,177.686,299.151,177.686z"/>
		</g>
	</g>
</g>
</svg>
