<?xml version="1.0" encoding="utf-8"?>
<!-- Generator: Adobe Illustrator 16.0.0, SVG Export Plug-In . SVG Version: 6.00 Build 0)  -->
<!DOCTYPE svg PUBLIC "-//W3C//DTD SVG 1.1//EN" "http://www.w3.org/Graphics/SVG/1.1/DTD/svg11.dtd">
<svg version="1.1" id="Layer_1" xmlns="http://www.w3.org/2000/svg" xmlns:xlink="http://www.w3.org/1999/xlink" x="0px" y="0px" viewBox="0 0 900 900" enable-background="new 0 0 900 900" xml:space="preserve">
<g>
	<path d="M741.854,464.227l-27.268-15.138l-0.524-31.183l26.744-16.046l27.267,15.139l0.523,31.182L741.854,464.227z
		 M718.283,446.871l23.499,13.045l23.046-13.829l-0.454-26.87l-23.497-13.046L717.831,420L718.283,446.871z"/>
	<path d="M335.731,377.732l-27.268-15.137l-0.524-31.183l26.744-16.045l27.269,15.137l0.524,31.183L335.731,377.732z
		 M312.161,360.377l23.497,13.045l23.046-13.828l-0.452-26.871l-23.497-13.044l-23.047,13.827L312.161,360.377z"/>
	<path d="M310.349,507.474l-27.268-15.138l-0.524-31.185l26.743-16.045l27.268,15.138l0.524,31.184L310.349,507.474z
		 M286.778,490.119l23.498,13.043l23.046-13.827l-0.452-26.871l-23.497-13.046l-23.046,13.827L286.778,490.119z"/>
	<path d="M158.053,507.471l-27.268-15.137l-0.525-31.184l26.744-16.044l27.269,15.138l0.524,31.182L158.053,507.471z
		 M134.482,490.117l23.498,13.044l23.046-13.828l-0.452-26.871l-23.498-13.044l-23.046,13.827L134.482,490.117z"/>
	<path d="M589.56,551.149l-27.27-15.138l-0.522-31.182l26.741-16.047l27.27,15.14l0.523,31.182L589.56,551.149z M565.986,533.795
		l23.5,13.044l23.046-13.827l-0.451-26.87l-23.499-13.047l-23.045,13.828L565.986,533.795z"/>
	<path d="M310.349,248.389l-27.268-15.137l-0.524-31.183l26.743-16.044l27.268,15.136l0.524,31.184L310.349,248.389z
		 M286.778,231.034l23.498,13.044l23.046-13.827l-0.452-26.872l-23.497-13.045l-23.046,13.829L286.778,231.034z"/>
	<path d="M666.342,680.783l-27.903-15.49l-0.524-31.182l26.744-16.049l27.909,15.497l-13.303,25.735L666.342,680.783z
		 M642.136,663.075L665,675.769l11.004-18.29l11.582-22.414l-22.855-12.689l-23.047,13.828L642.136,663.075z"/>
	<path d="M625.874,715.657l-12.82-7.117l-0.524-31.182l26.744-16.045l29.088,16.146l-26.182,16.432L625.874,715.657z
		 M616.752,706.321l8.086,4.489l14.771-19.712l21.417-13.442l-21.679-12.033L616.3,679.45L616.752,706.321z"/>
	<path d="M387.877,752.125l-27.902-4.802l-26.36-9.184l-0.293-17.465l26.743-16.044l27.268,15.139L387.877,752.125z
		 M361.057,743.746l23.011,3.938l-0.432-25.701l-23.497-13.042l-23.046,13.829l0.213,12.699L361.057,743.746z"/>
	<path d="M437.262,637.637l-27.268-15.138l-0.524-31.183l26.744-16.044l27.268,15.138l0.524,31.183L437.262,637.637z
		 M413.692,620.284l23.498,13.045l23.045-13.829l-0.451-26.871l-23.497-13.047l-23.046,13.829L413.692,620.284z"/>
	<path d="M640.319,464.227l-27.266-15.138l-0.524-31.183l26.744-16.046l27.267,15.139l0.526,31.182L640.319,464.227z
		 M616.752,446.871l23.497,13.045l23.047-13.829l-0.454-26.87l-23.494-13.044L616.3,420L616.752,446.871z"/>
	<path d="M665.705,420.979l-27.27-15.137l-0.523-31.183l26.744-16.045l27.27,15.137l0.523,31.183L665.705,420.979z M642.134,403.624
		l23.498,13.045l23.048-13.828l-0.452-26.871l-23.497-13.045l-23.05,13.827L642.134,403.624z"/>
	<path d="M513.409,680.43l-27.267-15.137l-0.525-31.182l26.744-16.049l27.266,15.139l0.527,31.185L513.409,680.43z M489.84,663.075
		l23.495,13.043l23.046-13.825l-0.45-26.874l-23.494-13.044l-23.05,13.828L489.84,663.075z"/>
	<path d="M665.705,594.395l-27.27-15.138l-0.521-31.183l26.742-16.045l27.272,15.136l0.521,31.182L665.705,594.395z
		 M642.134,577.039l23.498,13.044l23.048-13.828l-0.449-26.873l-23.5-13.043l-23.047,13.827L642.134,577.039z"/>
	<path d="M640.316,550.717l-27.264-15.137l-0.525-31.182l26.746-16.046l27.267,15.137l0.523,31.183L640.316,550.717z
		 M616.75,533.362l23.496,13.045l23.048-13.828l-0.452-26.871l-23.497-13.046l-23.046,13.829L616.75,533.362z"/>
	<path d="M538.793,378.129l-27.267-15.136l-0.524-31.185l26.744-16.043l27.268,15.137l0.523,31.183L538.793,378.129z
		 M515.224,360.774l23.497,13.044l23.047-13.828l-0.453-26.87l-23.497-13.045l-23.045,13.828L515.224,360.774z"/>
	<path d="M614.941,248.389l-27.271-15.137l-0.524-31.183l26.743-16.044l27.27,15.136l0.521,31.184L614.941,248.389z
		 M591.367,231.034l23.499,13.044l23.046-13.827l-0.45-26.872l-23.499-13.045l-23.045,13.829L591.367,231.034z"/>
	<path d="M691.093,291.641l-27.272-15.143l-0.524-31.183l13.701-8.22l14.979,17.346l18.553,25.352L691.093,291.641z M667.519,274.28
		l23.488,13.041l14.112-8.603l-16.062-21.955l-12.834-14.85l-9.156,5.496L667.519,274.28z"/>
	<path d="M716.47,334.883l-27.264-15.136l-0.526-31.186l19.771-11.86l12.343,20.185l13.728,27.167L716.47,334.883z M692.904,317.527
		l23.494,13.044l13.224-7.933l-12.092-23.937l-10.334-16.893l-14.744,8.847L692.904,317.527z"/>
	<path d="M614.941,334.883l-27.268-15.136l-0.524-31.186l26.743-16.046l27.267,15.138l0.524,31.183L614.941,334.883z
		 M591.371,317.527l23.495,13.045l23.048-13.828l-0.452-26.87l-23.495-13.045l-23.049,13.828L591.371,317.527z"/>
	<path d="M589.559,204.591l-27.269-15.138l-0.564-33.439l20.185,11.909l21.037,10.871l15.162,8.665L589.559,204.591z
		 M565.986,187.235l23.497,13.045l21.237-12.742l-9.558-5.464l-21.056-10.884l-14.534-8.571L565.986,187.235z"/>
	<path d="M386.496,204.591l-27.267-15.137l-0.524-31.183l26.743-16.045l27.268,15.136l0.524,31.183L386.496,204.591z
		 M362.926,187.235l23.497,13.045l23.046-13.828l-0.451-26.871l-23.497-13.045l-23.047,13.827L362.926,187.235z"/>
	<path d="M462.644,334.882l-27.268-15.135l-0.523-31.186l26.743-16.045l27.268,15.137l0.523,31.183L462.644,334.882z
		 M439.074,317.527l23.499,13.045l23.045-13.828l-0.451-26.87l-23.496-13.045l-23.047,13.828L439.074,317.527z"/>
	<path d="M411.879,334.882l-27.268-15.135l-0.524-31.186l26.744-16.045l27.268,15.137l0.524,31.183L411.879,334.882z
		 M388.31,317.527l23.497,13.045l23.046-13.828l-0.451-26.87l-23.498-13.045l-23.046,13.828L388.31,317.527z"/>
	<path d="M335.731,291.636l-27.268-15.138l-0.524-31.183l26.744-16.044l27.269,15.137l0.524,31.183L335.731,291.636z
		 M312.161,274.28l23.497,13.046l23.046-13.829l-0.452-26.871l-23.497-13.044l-23.047,13.828L312.161,274.28z"/>
	<path d="M259.584,334.882l-27.269-15.135l-0.524-31.186l26.744-16.045l27.267,15.137l0.524,31.183L259.584,334.882z
		 M236.014,317.527l23.497,13.045l23.046-13.828l-0.452-26.87l-23.498-13.045l-23.045,13.828L236.014,317.527z"/>
	<path d="M335.731,551.147l-27.268-15.137l-0.524-31.184l26.744-16.045l27.269,15.139l0.524,31.182L335.731,551.147z
		 M312.161,533.795l23.497,13.042l23.046-13.827l-0.452-26.87l-23.497-13.047l-23.047,13.828L312.161,533.795z"/>
	<path d="M310.349,680.43l-27.268-15.137l-0.524-31.182l26.743-16.049l27.268,15.142l0.524,31.182L310.349,680.43z M286.778,663.075
		l23.498,13.043l23.046-13.825l-0.452-26.874l-23.497-13.044l-23.046,13.828L286.778,663.075z"/>
	<path d="M259.584,680.43l-27.269-15.137l-0.524-31.182l26.744-16.049l27.267,15.142l0.524,31.182L259.584,680.43z M236.014,663.075
		l23.497,13.043l23.046-13.825l-0.452-26.874l-23.498-13.044l-23.045,13.828L236.014,663.075z"/>
	<path d="M208.818,507.474l-27.267-15.138l-0.524-31.185l26.744-16.045l27.268,15.138l0.524,31.184L208.818,507.474z
		 M185.248,490.119l23.498,13.043l23.046-13.827l-0.451-26.871l-23.497-13.046l-23.046,13.827L185.248,490.119z"/>
	<path d="M158.053,420.98l-19.574-10.867l9.319-34.972l8.441-16.952l28.034,15.562l0.524,31.183L158.053,420.98z M142.834,408.26
		l15.146,8.409l23.046-13.828l-0.452-26.871l-22.732-12.621l-6.618,13.287L142.834,408.26z"/>
	<g>
		<path d="M310.349,420.979l-27.268-15.137l-0.524-31.183l26.743-16.045l27.268,15.137l0.524,31.183L310.349,420.979z
			 M286.778,403.624l23.498,13.045l23.046-13.828l-0.452-26.871l-23.497-13.045l-23.046,13.827L286.778,403.624z"/>
		<path d="M564.176,594.398l-27.268-15.138l-0.524-31.184l26.744-16.045l27.265,15.139l0.525,31.181L564.176,594.398z
			 M540.605,577.043l23.495,13.045l23.049-13.829l-0.452-26.871l-23.496-13.046l-23.047,13.828L540.605,577.043z"/>
		<path d="M259.584,248.389l-28.312-15.717l16.925-19.955l20.873-16.371l16.729,4.486l0.529,31.512L259.584,248.389z
			 M237.058,231.612l22.453,12.466l23.046-13.827l-0.446-26.542l-12.206-3.274l-19.254,15.103L237.058,231.612z"/>
		<path d="M589.559,723.676L562.29,708.54l-0.524-31.182l26.743-16.045l27.268,15.136l0.523,31.183L589.559,723.676z
			 M565.986,706.321l23.497,13.045l23.046-13.826l-0.449-26.873l-23.498-13.044l-23.046,13.827L565.986,706.321z"/>
		<path d="M614.941,680.43l-27.269-15.137l-0.523-31.182l26.74-16.049l27.27,15.142l0.524,31.182L614.941,680.43z M591.369,663.075
			l23.497,13.043l23.048-13.825l-0.452-26.874l-23.497-13.044l-23.047,13.828L591.369,663.075z"/>
		<path d="M538.793,723.676l-27.269-15.136l-0.523-31.182l26.742-16.045l27.27,15.136l0.523,31.183L538.793,723.676z
			 M515.222,706.321l23.496,13.045l23.048-13.826l-0.453-26.873l-23.495-13.044l-23.047,13.827L515.222,706.321z"/>
		<path d="M513.409,766.922l-27.269-15.134l-0.523-31.184l26.743-16.045l27.269,15.138l0.525,31.18L513.409,766.922z
			 M489.839,749.568l23.497,13.043l23.045-13.825l-0.449-26.87l-23.497-13.047l-23.048,13.827L489.839,749.568z"/>
		<path d="M462.644,766.922l-27.268-15.134l-0.523-31.184l26.743-16.045l27.268,15.138l0.523,31.18L462.644,766.922z
			 M439.074,749.568l23.499,13.043l23.045-13.825l-0.451-26.87l-23.496-13.047l-23.047,13.827L439.074,749.568z"/>
		<path d="M488.027,723.676L460.76,708.54l-0.525-31.182l26.744-16.045l27.27,15.136l0.522,31.183L488.027,723.676z
			 M464.457,706.321l23.497,13.045l23.047-13.826l-0.453-26.873l-23.497-13.044l-23.045,13.827L464.457,706.321z"/>
		<path d="M411.879,766.995l-27.268-15.137l-0.524-31.184l26.744-16.044l27.268,15.139l0.524,31.182L411.879,766.995z
			 M388.31,749.643l23.497,13.043l23.046-13.828l-0.451-26.874l-23.498-13.042l-23.046,13.829L388.31,749.643z"/>
		<path d="M335.731,723.676l-27.268-15.136l-0.524-31.182l26.744-16.045l27.269,15.136l0.524,31.183L335.731,723.676z
			 M312.161,706.321l23.497,13.045l23.046-13.826l-0.452-26.873l-23.497-13.044l-23.047,13.827L312.161,706.321z"/>
		<path d="M284.966,723.676l-27.268-15.136l-0.523-31.182l26.743-16.045l27.267,15.136l0.524,31.183L284.966,723.676z
			 M261.396,706.321l23.498,13.045l23.046-13.826l-0.451-26.873l-23.498-13.044l-23.045,13.827L261.396,706.321z"/>
		<path d="M386.496,637.637l-27.267-15.138l-0.524-31.183l26.743-16.044l27.268,15.138l0.524,31.183L386.496,637.637z
			 M362.926,620.284l23.497,13.045l23.046-13.829l-0.451-26.871l-23.497-13.047l-23.047,13.829L362.926,620.284z"/>
		<path d="M716.47,420.979l-27.27-15.137l-0.521-31.183l26.741-16.045l27.27,15.137l0.523,31.183L716.47,420.979z M692.898,403.624
			l23.5,13.045l23.047-13.828l-0.453-26.871l-23.497-13.045l-23.046,13.827L692.898,403.624z"/>
		<path d="M614.941,420.979l-27.271-15.137l-0.524-31.183l26.743-16.045l27.27,15.137l0.521,31.183L614.941,420.979z
			 M591.367,403.624l23.499,13.045l23.046-13.828l-0.45-26.871l-23.499-13.045l-23.045,13.827L591.367,403.624z"/>
		<path d="M691.087,464.227l-27.267-15.138l-0.524-31.183l26.745-16.046l27.264,15.139l0.526,31.182L691.087,464.227z
			 M667.519,446.871l23.494,13.045l23.049-13.829l-0.455-26.87l-23.493-13.044L667.066,420L667.519,446.871z"/>
		<path d="M462.646,680.43l-27.27-15.135l-0.523-31.184l26.743-16.047l27.268,15.14l0.523,31.182L462.646,680.43z M439.073,663.078
			l23.5,13.043l23.044-13.826l-0.45-26.876l-23.499-13.044l-23.045,13.83L439.073,663.078z"/>
		<path d="M361.115,680.43l-27.27-15.135l-0.523-31.184l26.742-16.047l27.269,15.14l0.524,31.182L361.115,680.43z M337.543,663.078
			l23.499,13.043l23.045-13.826l-0.451-26.876l-23.498-13.044l-23.046,13.83L337.543,663.078z"/>
		<path d="M437.261,723.676l-27.266-15.136l-0.525-31.182l26.746-16.045l27.266,15.136l0.525,31.183L437.261,723.676z
			 M413.693,706.321l23.495,13.045l23.046-13.826l-0.452-26.873l-23.495-13.044L413.24,679.45L413.693,706.321z"/>
		<path d="M386.495,723.676l-27.266-15.136l-0.524-31.182l26.745-16.045l27.266,15.136l0.525,31.183L386.495,723.676z
			 M362.927,706.321l23.496,13.045l23.047-13.826l-0.451-26.873l-23.496-13.044l-23.047,13.827L362.927,706.321z"/>
		<path d="M411.88,680.43l-27.27-15.135l-0.523-31.184l26.743-16.047l27.269,15.14l0.524,31.182L411.88,680.43z M388.309,663.078
			l23.499,13.043l23.045-13.826l-0.451-26.876l-23.499-13.044l-23.045,13.83L388.309,663.078z"/>
		<path d="M589.56,637.181l-27.27-15.134l-0.524-31.184l26.743-16.044l27.27,15.138l0.521,31.183L589.56,637.181z M565.986,619.828
			l23.5,13.045l23.043-13.829l-0.448-26.872l-23.499-13.043l-23.046,13.828L565.986,619.828z"/>
		<path d="M488.029,637.181l-27.271-15.134l-0.524-31.184l26.744-16.044l27.27,15.138l0.522,31.183L488.029,637.181z
			 M464.456,619.828l23.499,13.045l23.046-13.829l-0.452-26.872l-23.499-13.043l-23.044,13.828L464.456,619.828z"/>
		<path d="M564.176,680.43l-27.268-15.137l-0.527-31.182l26.747-16.049l27.265,15.139l0.525,31.185L564.176,680.43z
			 M540.605,663.075l23.495,13.043l23.049-13.825l-0.452-26.874l-23.496-13.044l-23.047,13.828L540.605,663.075z"/>
		<path d="M538.793,637.181l-27.269-15.134l-0.523-31.184l26.742-16.044l27.271,15.138l0.522,31.183L538.793,637.181z
			 M515.222,619.828l23.499,13.045l23.045-13.829l-0.451-26.872l-23.499-13.043l-23.045,13.828L515.222,619.828z"/>
		<path d="M716.473,594.395l-27.27-15.138l-0.523-31.183l26.744-16.045l27.27,15.136l0.521,31.182L716.473,594.395z
			 M692.901,577.039l23.501,13.044l23.043-13.828l-0.45-26.873l-23.5-13.043l-23.046,13.827L692.901,577.039z"/>
		<path d="M614.941,594.395l-27.271-15.138l-0.521-31.183l26.74-16.045l27.27,15.136l0.524,31.182L614.941,594.395z
			 M591.367,577.039l23.499,13.044l23.048-13.828l-0.452-26.873l-23.499-13.043l-23.045,13.827L591.367,577.039z"/>
		<path d="M691.087,637.64l-27.267-15.138l-0.524-31.183l26.748-16.046l27.264,15.137l0.526,31.183L691.087,637.64z
			 M667.519,620.285l23.497,13.044l23.046-13.828l-0.451-26.872l-23.494-13.045l-23.05,13.828L667.519,620.285z"/>
		<path d="M640.319,637.64l-27.266-15.138l-0.524-31.183l26.744-16.046l27.267,15.137l0.526,31.183L640.319,637.64z
			 M616.752,620.285l23.497,13.044l23.047-13.828l-0.454-26.872l-23.494-13.045L616.3,593.412L616.752,620.285z"/>
		<path d="M716.47,507.471l-27.27-15.137l-0.523-31.184l26.744-16.044l27.27,15.137l0.521,31.183L716.47,507.471z M692.898,490.117
			l23.5,13.044l23.045-13.828l-0.451-26.871l-23.497-13.046l-23.049,13.829L692.898,490.117z"/>
		<path d="M614.938,507.471l-27.27-15.137l-0.522-31.184l26.741-16.044l27.269,15.137l0.524,31.183L614.938,507.471z
			 M591.365,490.117l23.501,13.044l23.046-13.828l-0.453-26.871l-23.498-13.044l-23.043,13.827L591.365,490.117z"/>
		<path d="M691.087,550.717l-27.27-15.137l-0.523-31.182l26.747-16.046l27.264,15.137l0.526,31.183L691.087,550.717z
			 M667.516,533.362l23.497,13.045l23.049-13.828l-0.455-26.871l-23.493-13.046l-23.05,13.829L667.516,533.362z"/>
		<path d="M665.705,507.471l-27.272-15.137l-0.521-31.184l26.744-16.044l27.27,15.137l0.521,31.183L665.705,507.471z
			 M642.131,490.117l23.499,13.044l23.047-13.828l-0.449-26.871l-23.5-13.046l-23.047,13.829L642.131,490.117z"/>
		<path d="M589.56,378.129l-27.27-15.136l-0.522-31.185l26.741-16.043l27.27,15.137l0.523,31.183L589.56,378.129z M565.986,360.774
			l23.5,13.044l23.046-13.828l-0.451-26.87l-23.499-13.045l-23.045,13.828L565.986,360.774z"/>
		<path d="M640.319,291.636l-27.266-15.138l-0.524-31.183l26.744-16.045l27.267,15.138l0.526,31.183L640.319,291.636z
			 M616.752,274.28l23.497,13.046l23.047-13.829l-0.454-26.871l-23.494-13.044L616.3,247.409L616.752,274.28z"/>
		<path d="M665.718,248.396l-27.282-15.144l-0.582-34.655l22.839,22.382l18.911,18.876L665.718,248.396z M642.134,231.034
			l23.488,13.038l7.993-4.917l-15.549-15.52l-16.325-15.999L642.134,231.034z"/>
		<path d="M691.09,378.129l-27.27-15.136l-0.524-31.185l26.745-16.043l27.27,15.137l0.523,31.183L691.09,378.129z M667.519,360.774
			l23.5,13.044l23.043-13.828l-0.449-26.87l-23.499-13.045l-23.044,13.828L667.519,360.774z"/>
		<path d="M640.322,378.129l-27.269-15.136l-0.521-31.185l26.741-16.043l27.271,15.137l0.524,31.183L640.322,378.129z
			 M616.752,360.774l23.5,13.044l23.044-13.828l-0.449-26.87l-23.499-13.045l-23.046,13.828L616.752,360.774z"/>
		<path d="M665.705,334.883l-27.267-15.136l-0.524-31.186l26.747-16.046l27.265,15.138l0.526,31.183L665.705,334.883z
			 M642.136,317.527l23.496,13.045l23.048-13.828l-0.452-26.87l-23.494-13.045l-23.05,13.828L642.136,317.527z"/>
		<path d="M488.027,204.591l-27.268-15.137l-0.525-31.183l26.744-16.045l27.27,15.136l0.522,31.183L488.027,204.591z
			 M464.457,187.235l23.497,13.045l23.047-13.828l-0.453-26.871l-23.497-13.045l-23.045,13.827L464.457,187.235z"/>
		<path d="M564.176,247.837l-27.27-15.137l-0.525-31.184l26.744-16.044l27.268,15.136l0.525,31.184L564.176,247.837z
			 M540.604,230.481l23.497,13.046l23.049-13.829l-0.452-26.871L563.2,189.784l-23.046,13.828L540.604,230.481z"/>
		<path d="M513.409,247.837L486.141,232.7l-0.523-31.184l26.743-16.044l27.269,15.136l0.525,31.184L513.409,247.837z
			 M489.839,230.481l23.497,13.046l23.045-13.829l-0.449-26.871l-23.497-13.044l-23.048,13.828L489.839,230.481z"/>
		<path d="M538.793,204.591l-27.269-15.138l-0.523-31.183l26.742-16.045l27.27,15.136l0.523,31.183L538.793,204.591z
			 M515.222,187.235l23.496,13.045l23.048-13.828l-0.453-26.871l-23.495-13.045l-23.047,13.827L515.222,187.235z"/>
		<path d="M437.262,204.591l-27.268-15.137l-0.524-31.183l26.744-16.045l27.268,15.136l0.524,31.183L437.262,204.591z
			 M413.692,187.235l23.498,13.045l23.045-13.828l-0.451-26.871l-23.497-13.045l-23.046,13.827L413.692,187.235z"/>
		<path d="M335.731,204.591l-27.311-15.162l0.383-17.24l25.634-11.57l28.019-9.781v37.718L335.731,204.591z M312.204,187.259
			l23.455,13.021l23.064-13.839v-30.346l-22.9,7.988l-23.337,10.541L312.204,187.259z"/>
		<path d="M361.114,334.882l-27.268-15.135l-0.523-31.186l26.743-16.045l27.268,15.137l0.525,31.183L361.114,334.882z
			 M337.543,317.527l23.497,13.045l23.046-13.828l-0.451-26.87l-23.497-13.045l-23.046,13.828L337.543,317.527z"/>
		<path d="M589.556,291.636l-27.266-15.138l-0.524-31.183l26.743-16.045l27.267,15.138l0.524,31.183L589.556,291.636z
			 M565.986,274.28l23.497,13.046l23.046-13.829l-0.451-26.871l-23.496-13.044l-23.046,13.828L565.986,274.28z"/>
		<path d="M488.027,291.636l-27.269-15.138l-0.524-31.183l26.744-16.044l27.269,15.137l0.523,31.183L488.027,291.636z
			 M464.456,274.28l23.497,13.046L511,273.497l-0.453-26.871l-23.497-13.044l-23.045,13.828L464.456,274.28z"/>
		<path d="M564.176,334.882l-27.27-15.135l-0.525-31.186l26.744-16.045l27.268,15.137l0.525,31.183L564.176,334.882z
			 M540.603,317.527l23.498,13.045l23.046-13.828l-0.449-26.87l-23.5-13.045l-23.044,13.828L540.603,317.527z"/>
		<path d="M513.409,334.882l-27.27-15.135l-0.523-31.186l26.744-16.045l27.267,15.137l0.526,31.183L513.409,334.882z
			 M489.838,317.527l23.497,13.045l23.046-13.828l-0.45-26.87l-23.496-13.045l-23.049,13.828L489.838,317.527z"/>
		<path d="M538.791,291.636l-27.267-15.138L511,245.315l26.743-16.045l27.269,15.138l0.524,31.183L538.791,291.636z M515.222,274.28
			l23.496,13.046l23.048-13.829l-0.454-26.871l-23.496-13.044l-23.045,13.828L515.222,274.28z"/>
		<path d="M462.644,248.389l-27.268-15.137l-0.523-31.183l26.743-16.044l27.268,15.136l0.523,31.184L462.644,248.389z
			 M439.074,231.034l23.499,13.044l23.045-13.827l-0.451-26.872l-23.496-13.045l-23.047,13.829L439.074,231.034z"/>
		<path d="M361.114,248.389l-27.268-15.137l-0.523-31.183l26.743-16.044l27.268,15.136l0.525,31.184L361.114,248.389z
			 M337.543,231.034l23.497,13.044l23.046-13.827l-0.451-26.872l-23.497-13.045l-23.046,13.829L337.543,231.034z"/>
		<path d="M437.262,291.636l-27.268-15.138l-0.524-31.183l26.744-16.044l27.268,15.137l0.524,31.183L437.262,291.636z
			 M413.692,274.28l23.498,13.046l23.045-13.829l-0.451-26.871l-23.497-13.044l-23.046,13.828L413.692,274.28z"/>
		<path d="M386.496,291.636l-27.267-15.138l-0.524-31.183l26.743-16.044l27.268,15.137l0.524,31.183L386.496,291.636z
			 M362.926,274.28l23.497,13.046l23.046-13.829l-0.451-26.871l-23.497-13.044l-23.047,13.828L362.926,274.28z"/>
		<path d="M411.879,248.389l-27.268-15.137l-0.524-31.183l26.744-16.044l27.268,15.136l0.524,31.184L411.879,248.389z
			 M388.31,231.034l23.497,13.044l23.046-13.827l-0.451-26.872l-23.498-13.045l-23.046,13.829L388.31,231.034z"/>
		<path d="M234.201,291.636l-27.268-15.138l-0.524-31.183l26.745-16.044l27.268,15.137l0.524,31.183L234.201,291.636z
			 M210.631,274.28l23.497,13.046l23.047-13.829l-0.452-26.871l-23.498-13.044l-23.045,13.828L210.631,274.28z"/>
		<path d="M310.349,334.882l-27.268-15.135l-0.524-31.186l26.743-16.045l27.268,15.137l0.524,31.183L310.349,334.882z
			 M286.778,317.527l23.498,13.045l23.046-13.828l-0.452-26.87l-23.497-13.045l-23.046,13.828L286.778,317.527z"/>
		<path d="M284.966,291.636l-27.268-15.138l-0.523-31.183l26.743-16.044l27.267,15.137l0.524,31.183L284.966,291.636z
			 M261.396,274.28l23.498,13.046l23.046-13.829l-0.451-26.871l-23.498-13.044l-23.045,13.828L261.396,274.28z"/>
		<path d="M284.966,377.732l-27.268-15.137l-0.523-31.183l26.743-16.045l27.267,15.137l0.524,31.183L284.966,377.732z
			 M261.396,360.377l23.498,13.045l23.046-13.828l-0.451-26.871l-23.498-13.044l-23.045,13.827L261.396,360.377z"/>
		<path d="M183.436,377.732l-27.268-15.137l-0.524-31.183l26.743-16.045l27.268,15.137l0.524,31.183L183.436,377.732z
			 M159.865,360.377l23.497,13.045l23.046-13.828l-0.451-26.871l-23.497-13.044l-23.045,13.827L159.865,360.377z"/>
		<path d="M259.584,420.979l-27.269-15.137l-0.524-31.183l26.744-16.045l27.267,15.137l0.524,31.183L259.584,420.979z
			 M236.014,403.624l23.497,13.045l23.046-13.828l-0.452-26.871l-23.498-13.045l-23.045,13.827L236.014,403.624z"/>
		<path d="M208.818,420.979l-27.267-15.137l-0.524-31.183l26.744-16.045l27.268,15.137l0.524,31.183L208.818,420.979z
			 M185.248,403.624l23.498,13.045l23.046-13.828l-0.451-26.871l-23.497-13.045l-23.046,13.827L185.248,403.624z"/>
		<path d="M234.201,377.732l-27.268-15.137l-0.524-31.183l26.745-16.045l27.268,15.137l0.524,31.183L234.201,377.732z
			 M210.631,360.377l23.497,13.045l23.047-13.828l-0.452-26.871l-23.498-13.044l-23.045,13.827L210.631,360.377z"/>
		<path d="M335.731,637.181l-27.268-15.136l-0.524-31.184l26.744-16.044l27.269,15.14l0.524,31.18L335.731,637.181z
			 M312.161,619.827l23.497,13.043l23.046-13.826l-0.452-26.872l-23.497-13.046l-23.047,13.829L312.161,619.827z"/>
		<path d="M361.114,594.395l-27.268-15.138l-0.523-31.183l26.743-16.045l27.268,15.138l0.525,31.18L361.114,594.395z
			 M337.543,577.039l23.497,13.044l23.046-13.828l-0.451-26.871l-23.497-13.045l-23.046,13.827L337.543,577.039z"/>
		<path d="M310.349,594.395l-27.268-15.138l-0.524-31.183l26.743-16.045l27.268,15.138l0.524,31.18L310.349,594.395z
			 M286.778,577.039l23.498,13.044l23.046-13.828l-0.452-26.871l-23.497-13.045l-23.046,13.827L286.778,577.039z"/>
		<path d="M234.201,637.181l-27.268-15.136l-0.524-31.184l26.745-16.044l27.268,15.14l0.524,31.18L234.201,637.181z
			 M210.631,619.827l23.497,13.043l23.047-13.826l-0.452-26.872l-23.498-13.046l-23.045,13.829L210.631,619.827z"/>
		<path d="M284.966,637.181l-27.268-15.136l-0.523-31.184l26.743-16.044l27.267,15.14l0.524,31.18L284.966,637.181z
			 M261.396,619.827l23.498,13.043l23.046-13.826l-0.451-26.872l-23.498-13.046l-23.045,13.829L261.396,619.827z"/>
		<path d="M284.966,464.227l-27.268-15.138l-0.523-31.183l26.743-16.046l27.267,15.139l0.524,31.182L284.966,464.227z
			 M261.396,446.871l23.498,13.045l23.046-13.829l-0.451-26.87l-23.498-13.044L260.945,420L261.396,446.871z"/>
		<path d="M183.436,464.227l-27.268-15.138l-0.524-31.183l26.743-16.046l27.268,15.139l0.524,31.182L183.436,464.227z
			 M159.865,446.871l23.497,13.045l23.046-13.829l-0.451-26.87l-23.497-13.044L159.415,420L159.865,446.871z"/>
		<path d="M259.584,507.474l-27.269-15.138l-0.524-31.185l26.744-16.045l27.267,15.138l0.524,31.184L259.584,507.474z
			 M236.014,490.119l23.497,13.043l23.046-13.827l-0.452-26.871l-23.498-13.046l-23.045,13.827L236.014,490.119z"/>
		<path d="M234.201,464.227l-27.268-15.138l-0.524-31.183l26.745-16.046l27.268,15.139l0.524,31.182L234.201,464.227z
			 M210.631,446.871l23.497,13.045l23.047-13.829l-0.452-26.87l-23.498-13.044L210.18,420L210.631,446.871z"/>
		<path d="M284.966,551.146l-27.268-15.137l-0.523-31.184l26.743-16.045l27.267,15.14l0.524,31.181L284.966,551.146z
			 M261.396,533.793l23.498,13.044l23.046-13.829l-0.451-26.87l-23.498-13.047l-23.045,13.828L261.396,533.793z"/>
		<path d="M183.436,551.146l-27.268-15.137l-0.524-31.184l26.743-16.045l27.268,15.14l0.524,31.181L183.436,551.146z
			 M159.865,533.793l23.497,13.044l23.046-13.829l-0.451-26.87l-23.497-13.047l-23.045,13.828L159.865,533.793z"/>
		<path d="M259.584,594.396l-27.269-15.138l-0.524-31.185l26.744-16.045l27.267,15.138l0.524,31.183L259.584,594.396z
			 M236.014,577.041l23.497,13.045l23.046-13.83l-0.452-26.872l-23.498-13.045l-23.045,13.827L236.014,577.041z"/>
		<path d="M208.818,594.396l-27.267-15.138l-0.524-31.185l26.744-16.045l27.268,15.138l0.524,31.183L208.818,594.396z
			 M185.248,577.041l23.498,13.045l23.046-13.83l-0.451-26.872l-23.497-13.045l-23.046,13.827L185.248,577.041z"/>
		<path d="M234.201,551.146l-27.268-15.137l-0.524-31.184l26.745-16.045l27.268,15.14l0.524,31.181L234.201,551.146z
			 M210.631,533.793l23.497,13.044l23.047-13.829l-0.452-26.87l-23.498-13.047l-23.045,13.828L210.631,533.793z"/>
		<g>
			<g>
				<path d="M449.784,597.518c-81.61,0-148.006-66.397-148.006-148.008c0-81.611,66.396-148.007,148.006-148.007
					c81.611,0,148.006,66.396,148.006,148.007C597.79,531.12,531.395,597.518,449.784,597.518z M449.784,387.389
					c-34.253,0-62.121,27.868-62.121,62.121c0,34.254,27.868,62.121,62.121,62.121c34.253,0,62.12-27.867,62.12-62.121
					C511.903,415.256,484.037,387.389,449.784,387.389z"/>
				<path d="M449.783,771.705c-177.659,0-322.195-144.535-322.195-322.195s144.536-322.196,322.195-322.196
					c177.659,0,322.198,144.536,322.198,322.196S627.441,771.705,449.783,771.705z M449.783,153.452
					c-163.246,0-296.056,132.811-296.056,296.058c0,163.248,132.81,296.059,296.056,296.059S745.844,612.758,745.844,449.51
					C745.844,286.263,613.028,153.452,449.783,153.452z"/>
			</g>
			<g>
				<path d="M141.271,430.268c0,0-51.134,1.485-72.295,0c0,0-17.426,1.259-18.67-26.251l-27.384-43.247
					c0,0-16.181,9.125-7.469,86.491c0,0,32.364,37.535,54.769,35.046c0,0,35.052,6.459,71.049,0.117"/>
				<path d="M758.55,465.729c0,0,51.119-1.985,72.29-0.709c0,0,17.415-1.43,18.927,26.07l27.81,42.976
					c0,0,16.091-9.284,6.619-86.561c0,0-32.731-37.215-55.107-34.507c0,0-35.118-6.117-71.047,0.577"/>
				<path d="M469.025,140.751c0,0-1.487-51.134,0-72.294c0,0-1.26-17.427,26.252-18.672l43.245-27.384c0,0-9.125-16.181-86.49-7.468
					c0,0-37.535,32.364-35.047,54.77c0,0-6.459,35.051-0.118,71.048"/>
				<path d="M433.564,758.032c0,0,1.986,51.119,0.708,72.29c0,0,1.431,17.415-26.068,18.93l-42.976,27.806
					c0,0,9.285,16.092,86.562,6.621c0,0,37.215-32.731,34.506-55.107c0,0,6.117-35.118-0.577-71.048"/>
				<path d="M195.781,272.92c0,0-44.489-25.251-61.812-37.495c0,0-15.552-7.962-2.348-32.128l-0.981-51.18
					c0,0-18.568-0.591-51.246,70.077c0,0,8.203,48.877,28.65,58.365c0,0,26.618,23.708,60.685,36.956"/>
				<path d="M705.157,623.39c0,0,44.733,24.816,62.175,36.891c0,0,15.628,7.809,2.658,32.105l1.483,51.165
					c0,0,18.577,0.411,50.558-70.573c0,0-8.679-48.795-29.217-58.087c0,0-26.851-23.441-61.047-36.355"/>
				<path d="M626.165,195.376c0,0,25.251-44.488,37.496-61.81c0,0,7.964-15.553,32.13-2.349l51.179-0.981
					c0,0,0.591-18.567-70.079-51.244c0,0-48.877,8.202-58.369,28.65c0,0-23.702,26.616-36.95,60.684"/>
				<path d="M275.692,704.755c0,0-24.816,44.733-36.889,62.176c0,0-7.809,15.629-32.104,2.657l-51.165,1.486
					c0,0-0.409,18.574,70.573,50.557c0,0,48.795-8.683,58.084-29.219c0,0,23.443-26.852,36.357-61.047"/>
				<path d="M316.293,169.786c0,0-26.091-44.002-35.053-63.228c0,0-9.549-14.63,13.909-29.056l24.547-44.92
					c0,0-15.827-9.728-79.268,35.404c0,0-17.135,46.504-4.093,64.892c0,0,11.342,33.79,34.342,62.196"/>
				<path d="M584.57,726.85c0,0,26.522,43.742,35.672,62.885c0,0,9.689,14.531-13.629,29.188l-24.104,45.159
					c0,0,15.928,9.572,78.921-36.178c0,0,16.68-46.669,3.46-64.93c0,0-11.675-33.678-34.958-61.859"/>
				<path d="M728.418,316.065c0,0,43.997-26.092,63.226-35.055c0,0,14.63-9.55,29.063,13.909l44.913,24.546
					c0,0,9.729-15.822-35.404-79.266c0,0-46.503-17.136-64.892-4.097c0,0-33.787,11.347-62.195,34.346"/>
				<path d="M171.351,584.346c0,0-43.745,26.52-62.883,35.668c0,0-14.532,9.69-29.19-13.625l-45.155-24.104
					c0,0-9.574,15.926,36.177,78.92c0,0,46.67,16.678,64.927,3.461c0,0,33.68-11.679,61.86-34.956"/>
			</g>
		</g>
	</g>
</g>
</svg>
