<svg xmlns="http://www.w3.org/2000/svg" width="600" height="600" viewBox="0 0 600 600"><path d="M508.74 299.293c0 115.754-93.836 209.588-209.59 209.588-115.752 0-209.59-93.833-209.59-209.587 0-115.752 93.837-209.587 209.588-209.587 115.754 0 209.593 93.835 209.593 209.587zM299.15 156.096c-79.086 0-143.198 64.113-143.198 143.198 0 79.086 64.112 143.2 143.197 143.2 79.088 0 143.2-64.113 143.2-143.2 0-79.085-64.112-143.198-143.2-143.198z"/><path d="M492.455 287.656h101.15v31.792h-101.15z"/><path d="M593.818 287.73l-.343 101.15-31.794-.107.344-101.15zM310.152 492.674l-.344 101.153-31.792-.108.344-101.154z"/><path d="M309.73 593.936l-101.156-.698.22-31.795 101.156.698zM4.7 278.978h101.15v31.79H4.7z"/><path d="M4.514 310.676l.414-101.15 31.79.13-.413 101.15zM288.302 105.94l.415-101.154 31.79.13-.414 101.153z"/><path d="M288.796 4.64l101.158.768-.242 31.79-101.158-.768zM472.004 386.666l87.38 50.974-16.02 27.462-87.38-50.974z"/><path d="M559.466 437.735l-51.272 87.19-27.403-16.115 51.273-87.19zM211.196 471.81L159.924 559l-27.402-16.113 51.272-87.19z"/><path d="M159.8 559.15l-87.017-51.58 16.212-27.35 87.018 51.58z"/><g><path d="M126.378 211.824l-87.33-51.03 16.037-27.445 87.33 51.028z"/><path d="M38.93 160.654l51.337-87.166 27.397 16.135-51.336 87.166z"/></g><g><path d="M387.244 126.816l51.338-87.168 27.398 16.136-51.338 87.168z"/><path d="M438.684 39.51l86.973 51.625-16.225 27.334-86.973-51.624z"/></g><g><path d="M407.538 459.78l51.467 87.08-27.372 16.178-51.466-87.082z"/><path d="M459.092 547.024l-87.24 51.155-16.078-27.418 87.24-51.155z"/></g><g><path d="M138.34 407.094L51.097 458.25 35.02 430.833l87.243-51.156z"/><path d="M50.887 458.28L.014 370.836l27.484-15.99L78.37 442.29z"/></g><g><path d="M190.92 138.727l-51.402-87.105 27.375-16.154 51.4 87.105z"/><path d="M139.48 51.41L226.776.295l16.066 27.44-87.3 51.113z"/></g><g><path d="M460.145 191.55l87.3-51.115 16.065 27.44-87.3 51.114z"/><path d="M547.6 140.42l50.808 87.464-27.49 15.968-50.807-87.464z"/></g><g><circle cx="299.15" cy="299.295" r="122.33"/><path fill="#FFF" d="M299.15 422.347c-67.852 0-123.053-55.203-123.053-123.053 0-67.852 55.2-123.053 123.054-123.053 67.852 0 123.053 55.202 123.053 123.054s-55.2 123.053-123.052 123.053zm0-244.66c-67.053 0-121.607 54.55-121.607 121.606 0 67.057 54.554 121.607 121.608 121.607 67.055 0 121.61-54.55 121.61-121.607 0-67.055-54.555-121.607-121.61-121.607z"/></g></svg>