<svg xmlns="http://www.w3.org/2000/svg" viewBox="0 0 900 900"><path d="M741.854 464.227l-27.268-15.138-.524-31.184 26.744-16.046L768.073 417l.523 31.18-26.742 16.047zm-23.57-17.356l23.498 13.046 23.046-13.83-.454-26.87-23.497-13.045L717.83 420l.453 26.87zM335.73 377.732l-27.267-15.137-.524-31.183 26.743-16.045 27.27 15.137.523 31.183-26.745 16.045zm-23.57-17.355l23.498 13.045 23.046-13.828-.452-26.87-23.497-13.045-23.047 13.826.453 26.87zM310.35 507.474l-27.27-15.138-.523-31.185 26.743-16.044 27.268 15.138.524 31.184-26.743 16.046zm-23.572-17.355l23.498 13.042 23.046-13.827-.452-26.87-23.497-13.047-23.046 13.827.45 26.874zM158.053 507.47l-27.268-15.136-.525-31.184 26.744-16.044 27.27 15.138.523 31.182-26.744 16.045zm-23.57-17.353l23.497 13.044 23.046-13.827-.452-26.87-23.498-13.045-23.046 13.827.452 26.872zM589.56 551.15l-27.27-15.14-.522-31.18 26.74-16.048 27.27 15.14.524 31.182-26.742 16.045zm-23.574-17.355l23.5 13.044 23.046-13.828-.45-26.87-23.5-13.047-23.045 13.828.45 26.872zM310.35 248.39l-27.27-15.138-.523-31.183 26.743-16.045 27.268 15.136.524 31.185-26.743 16.044zm-23.572-17.356l23.498 13.044 23.046-13.827-.452-26.87-23.497-13.046-23.046 13.83.45 26.87zM666.342 680.783l-27.903-15.49-.525-31.182 26.744-16.048 27.908 15.497-13.303 25.734-12.923 21.49zm-24.206-17.708L665 675.77l11.004-18.29 11.582-22.415-22.855-12.69-23.046 13.83.452 26.87z"/><path d="M625.874 715.657l-12.82-7.117-.524-31.182 26.744-16.045 29.088 16.146-26.182 16.43-16.306 21.767zm-9.122-9.336l8.086 4.49 14.77-19.712 21.418-13.442-21.68-12.033L616.3 679.45l.452 26.87zM387.877 752.125l-27.902-4.802-26.36-9.184-.293-17.466 26.743-16.044 27.268 15.14.544 32.355zm-26.82-8.38l23.01 3.94-.43-25.702-23.498-13.042-23.047 13.83.213 12.7 23.75 8.276zM437.262 637.637L409.994 622.5l-.524-31.184 26.744-16.044 27.268 15.138.524 31.183-26.744 16.044zm-23.57-17.353l23.498 13.045 23.045-13.83-.45-26.87-23.498-13.048-23.046 13.83.452 26.872zM640.32 464.227l-27.267-15.138-.524-31.184 26.743-16.046L666.54 417l.526 31.18-26.747 16.047zM616.75 446.87l23.497 13.046 23.046-13.83-.454-26.87-23.494-13.043L616.3 420l.452 26.87z"/><path d="M665.705 420.98l-27.27-15.138-.523-31.183 26.744-16.046 27.27 15.137.523 31.184-26.745 16.045zm-23.57-17.356l23.497 13.045 23.048-13.83-.452-26.87-23.497-13.045-23.05 13.827.454 26.872zM513.41 680.43l-27.268-15.137-.525-31.182 26.744-16.048 27.267 15.14.527 31.184-26.745 16.044zm-23.57-17.355l23.495 13.043 23.046-13.825-.45-26.874-23.493-13.045-23.05 13.828.453 26.872zM665.705 594.395l-27.27-15.138-.52-31.183 26.74-16.045 27.273 15.135.52 31.182-26.743 16.048zm-23.57-17.356l23.497 13.043 23.048-13.828-.45-26.873-23.5-13.043-23.046 13.826.45 26.873z"/><path d="M640.316 550.717l-27.264-15.137-.525-31.182 26.746-16.046 27.267 15.137.523 31.182-26.747 16.045zm-23.566-17.355l23.496 13.045 23.048-13.828-.452-26.872-23.497-13.046-23.046 13.83.45 26.87zM538.793 378.13l-27.267-15.137-.524-31.185 26.744-16.043 27.268 15.137.523 31.183-26.744 16.044zm-23.57-17.356l23.498 13.044 23.048-13.828-.453-26.87-23.497-13.045-23.045 13.828.45 26.87zM614.94 248.39l-27.27-15.138-.524-31.183 26.743-16.045 27.27 15.136.52 31.185-26.74 16.044zm-23.573-17.356l23.5 13.044 23.045-13.827-.45-26.87-23.5-13.046-23.044 13.83.45 26.87zM691.093 291.64L663.82 276.5l-.523-31.183 13.7-8.22 14.98 17.346 18.553 25.353-19.437 11.848zm-23.574-17.36l23.487 13.04 14.112-8.602-16.063-21.955-12.834-14.85-9.156 5.496.452 26.87z"/><path d="M716.47 334.883l-27.264-15.136-.526-31.186 19.77-11.86 12.344 20.186 13.728 27.167-18.052 10.83zm-23.566-17.356l23.494 13.044 13.224-7.932L717.53 298.7l-10.334-16.892-14.744 8.847.452 26.872zM614.94 334.883l-27.267-15.136-.524-31.186 26.742-16.045 27.267 15.138.523 31.183-26.742 16.047zm-23.57-17.356l23.496 13.045 23.048-13.828-.452-26.87-23.495-13.045-23.05 13.827.454 26.87zM589.56 204.59l-27.27-15.137-.564-33.44 20.185 11.91 21.038 10.87 15.162 8.666-28.55 17.13zm-23.574-17.355l23.497 13.045 21.237-12.742-9.558-5.464-21.056-10.884-14.534-8.57.414 24.615zM386.496 204.59l-27.267-15.136-.525-31.183 26.743-16.044 27.268 15.136.524 31.183-26.744 16.046zm-23.57-17.355l23.497 13.045 23.046-13.828-.452-26.87-23.497-13.046-23.046 13.827.452 26.872zM462.644 334.882l-27.268-15.135-.523-31.186 26.743-16.044 27.268 15.137.523 31.183-26.743 16.046zm-23.57-17.355l23.5 13.045 23.044-13.828-.45-26.87-23.497-13.045-23.046 13.827.45 26.87z"/><path d="M411.88 334.882l-27.27-15.135-.523-31.186 26.744-16.044 27.27 15.137.523 31.183-26.744 16.046zm-23.57-17.355l23.497 13.045 23.046-13.828-.45-26.87-23.5-13.045-23.045 13.827.452 26.87zM335.73 291.636l-27.267-15.138-.524-31.183 26.743-16.044 27.27 15.138.523 31.183-26.745 16.046zm-23.57-17.356l23.498 13.046 23.046-13.83-.452-26.87-23.497-13.044-23.047 13.828.453 26.87zM259.584 334.882l-27.27-15.135-.523-31.186 26.745-16.044 27.267 15.137.524 31.183-26.742 16.046zm-23.57-17.355l23.497 13.045 23.047-13.828-.452-26.87-23.498-13.045-23.045 13.827.452 26.87zM335.73 551.147l-27.267-15.137-.524-31.184 26.743-16.045 27.27 15.14.523 31.182-26.745 16.045zm-23.57-17.352l23.498 13.042 23.046-13.827-.452-26.87-23.497-13.047-23.047 13.828.453 26.875zM310.35 680.43l-27.27-15.137-.523-31.182 26.743-16.048 27.268 15.142.524 31.182-26.743 16.044zm-23.572-17.355l23.498 13.043 23.046-13.825-.452-26.874-23.497-13.045-23.046 13.828.45 26.872z"/><path d="M259.584 680.43l-27.27-15.137-.523-31.182 26.745-16.048 27.267 15.142.524 31.182-26.742 16.044zm-23.57-17.355l23.497 13.043 23.047-13.825-.452-26.874-23.498-13.045-23.045 13.828.452 26.872zM208.818 507.474l-27.267-15.138-.523-31.185 26.744-16.044 27.27 15.138.523 31.184-26.745 16.046zm-23.57-17.355l23.498 13.042 23.046-13.827-.45-26.87-23.498-13.047-23.046 13.827.45 26.874zM158.053 420.98l-19.574-10.867 9.318-34.972 8.44-16.95 28.035 15.56.524 31.184-26.744 16.046zm-15.22-12.72l15.147 8.41 23.046-13.83-.452-26.87-22.732-12.62-6.618 13.286-8.39 31.624zM310.35 420.98l-27.27-15.138-.523-31.183 26.743-16.046 27.268 15.137.524 31.184-26.743 16.045zm-23.572-17.356l23.498 13.045 23.046-13.83-.452-26.87-23.497-13.045-23.046 13.827.45 26.872zM564.176 594.398l-27.268-15.138-.524-31.184 26.744-16.045 27.265 15.14.525 31.18-26.742 16.048zm-23.57-17.355l23.494 13.045 23.05-13.83-.453-26.87-23.496-13.046-23.046 13.828.45 26.873zM259.584 248.39l-28.312-15.718 16.925-19.955 20.873-16.37 16.73 4.485.528 31.512-26.744 16.045zm-22.526-16.778l22.453 12.466 23.047-13.827-.446-26.54-12.205-3.275-19.254 15.103-13.592 16.074zM589.56 723.676l-27.27-15.136-.524-31.182 26.743-16.045 27.267 15.136.523 31.182-26.74 16.044zm-23.574-17.355l23.497 13.046 23.046-13.826-.45-26.873-23.498-13.044-23.046 13.827.45 26.87z"/><path d="M614.94 680.43l-27.268-15.137-.523-31.182 26.74-16.048 27.27 15.142.523 31.182-26.742 16.044zm-23.57-17.355l23.496 13.043 23.048-13.825-.452-26.874-23.497-13.045-23.047 13.828.45 26.872zM538.793 723.676l-27.27-15.136-.522-31.182 26.743-16.045 27.27 15.136.523 31.182-26.743 16.044zm-23.57-17.355l23.495 13.046 23.048-13.826-.453-26.873-23.495-13.044-23.047 13.827.452 26.87z"/><path d="M513.41 766.922l-27.27-15.134-.523-31.184 26.743-16.045 27.27 15.137.524 31.18-26.745 16.045zm-23.57-17.354l23.496 13.043 23.045-13.824-.448-26.87-23.497-13.047-23.048 13.826.452 26.872z"/><path d="M462.644 766.922l-27.268-15.134-.523-31.184 26.743-16.045 27.268 15.137.523 31.18-26.743 16.045zm-23.57-17.354l23.5 13.043 23.044-13.824-.45-26.87-23.497-13.047-23.046 13.826.45 26.872z"/><path d="M488.027 723.676L460.76 708.54l-.525-31.182 26.744-16.045 27.27 15.136.52 31.182-26.743 16.044zm-23.57-17.355l23.497 13.046L511 705.54l-.452-26.873-23.497-13.044-23.044 13.827.45 26.87zM411.88 766.995l-27.27-15.137-.523-31.184 26.744-16.044 27.27 15.14.523 31.18-26.744 16.045zm-23.57-17.352l23.497 13.043 23.046-13.828-.45-26.874-23.5-13.042-23.045 13.83.452 26.87zM335.73 723.676l-27.267-15.136-.524-31.182 26.743-16.045 27.27 15.136.523 31.182-26.745 16.044zm-23.57-17.355l23.498 13.046 23.046-13.826-.452-26.873-23.497-13.044-23.047 13.827.453 26.87z"/><path d="M284.966 723.676l-27.268-15.136-.523-31.182 26.743-16.045 27.267 15.136.524 31.182-26.744 16.044zm-23.57-17.355l23.498 13.046 23.046-13.826-.45-26.873-23.5-13.044-23.044 13.827.45 26.87zM386.496 637.637L359.23 622.5l-.525-31.184 26.743-16.044 27.268 15.138.524 31.183-26.744 16.044zm-23.57-17.353l23.497 13.045 23.046-13.83-.452-26.87-23.497-13.048-23.046 13.83.452 26.872zM716.47 420.98L689.2 405.84l-.52-31.183 26.74-16.046 27.27 15.137.523 31.184-26.743 16.045zm-23.572-17.356l23.5 13.045 23.047-13.83-.453-26.87-23.497-13.045-23.046 13.827.448 26.872zM614.94 420.98l-27.27-15.138-.524-31.183 26.743-16.046 27.27 15.137.52 31.184-26.74 16.045zm-23.573-17.356l23.5 13.045 23.045-13.83-.45-26.87-23.5-13.045-23.044 13.827.45 26.872z"/><path d="M691.087 464.227L663.82 449.09l-.524-31.184 26.745-16.046L717.306 417l.526 31.18-26.743 16.047zM667.52 446.87l23.493 13.046 23.05-13.83-.456-26.87-23.493-13.043L667.066 420l.453 26.87zM462.646 680.43l-27.27-15.135-.523-31.184 26.743-16.046 27.268 15.14.523 31.182-26.74 16.044zm-23.573-17.352l23.5 13.043 23.044-13.825-.45-26.876-23.5-13.045-23.044 13.83.45 26.873zM361.115 680.43l-27.27-15.135-.523-31.184 26.742-16.046 27.27 15.14.523 31.182-26.742 16.044zm-23.572-17.352l23.5 13.043 23.044-13.825-.45-26.876-23.5-13.045-23.045 13.83.45 26.873z"/><path d="M437.26 723.676l-27.265-15.136-.525-31.182 26.746-16.045 27.266 15.136.525 31.182-26.746 16.044zm-23.567-17.355l23.495 13.046 23.046-13.826-.452-26.873-23.495-13.044-23.047 13.827.453 26.87z"/><path d="M386.495 723.676L359.23 708.54l-.525-31.182 26.745-16.045 27.266 15.136.525 31.182-26.745 16.044zm-23.568-17.355l23.496 13.046 23.047-13.826-.45-26.873-23.497-13.044-23.047 13.827.45 26.87z"/><path d="M411.88 680.43l-27.27-15.135-.523-31.184 26.743-16.046 27.27 15.14.523 31.182-26.743 16.044zm-23.57-17.352l23.498 13.043 23.045-13.825-.45-26.876-23.5-13.045-23.045 13.83.45 26.873zM589.56 637.18l-27.27-15.133-.524-31.184 26.743-16.044 27.27 15.137.52 31.183-26.74 16.04zm-23.574-17.352l23.5 13.045 23.043-13.83-.45-26.87-23.498-13.044-23.046 13.827.45 26.87zM488.03 637.18l-27.272-15.133-.524-31.184 26.744-16.044 27.27 15.137.522 31.183-26.74 16.04zm-23.574-17.352l23.5 13.045L511 619.043l-.45-26.87-23.5-13.044-23.044 13.827.45 26.87z"/><path d="M564.176 680.43l-27.268-15.137-.527-31.182 26.748-16.048 27.265 15.14.525 31.184-26.742 16.044zm-23.57-17.355l23.494 13.043 23.05-13.825-.453-26.874-23.496-13.045-23.046 13.828.45 26.872z"/><path d="M538.793 637.18l-27.27-15.133-.522-31.184 26.743-16.044 27.27 15.137.523 31.183-26.743 16.04zm-23.57-17.352l23.498 13.045 23.046-13.83-.45-26.87-23.5-13.044-23.045 13.827.452 26.87zM716.473 594.395l-27.27-15.138-.523-31.183 26.744-16.045 27.27 15.135.52 31.182-26.74 16.048zM692.9 577.04l23.502 13.043 23.043-13.828-.45-26.873-23.5-13.043-23.046 13.826.45 26.873zM614.94 594.395l-27.27-15.138-.52-31.183 26.74-16.045 27.27 15.135.523 31.182-26.742 16.048zm-23.573-17.356l23.5 13.043 23.047-13.828-.452-26.873-23.5-13.043-23.044 13.826.45 26.873z"/><path d="M691.087 637.64l-27.267-15.138-.524-31.183 26.748-16.047 27.264 15.137.526 31.183-26.747 16.047zm-23.568-17.355l23.496 13.044 23.046-13.83-.45-26.87-23.495-13.046-23.05 13.828.452 26.873z"/><path d="M640.32 637.64l-27.267-15.138-.524-31.183 26.743-16.047 27.267 15.137.526 31.183-26.747 16.047zm-23.568-17.355l23.497 13.044 23.046-13.83-.454-26.87-23.494-13.046-23.048 13.828.452 26.873zM716.47 507.47l-27.27-15.136-.523-31.184 26.744-16.044 27.27 15.137.522 31.183-26.742 16.045zm-23.572-17.353l23.5 13.044 23.045-13.827-.45-26.87-23.498-13.047-23.05 13.83.453 26.87zM614.938 507.47l-27.27-15.136-.522-31.184 26.74-16.044 27.27 15.137.524 31.183-26.742 16.045zm-23.573-17.353l23.5 13.044 23.047-13.827-.453-26.87-23.5-13.045-23.042 13.827.447 26.872z"/><path d="M691.087 550.717l-27.27-15.137-.523-31.182 26.747-16.046 27.265 15.137.526 31.182-26.743 16.045zm-23.57-17.355l23.496 13.045 23.05-13.828-.456-26.872-23.493-13.046-23.05 13.83.452 26.87z"/><path d="M665.705 507.47l-27.272-15.136-.52-31.184 26.743-16.044 27.27 15.137.52 31.183-26.74 16.045zm-23.574-17.353l23.5 13.044 23.047-13.827-.45-26.87-23.5-13.047-23.046 13.83.45 26.87zM589.56 378.13l-27.27-15.137-.522-31.185 26.74-16.043 27.27 15.137.524 31.183-26.742 16.044zm-23.574-17.356l23.5 13.044 23.046-13.828-.45-26.87-23.5-13.045-23.045 13.828.45 26.87zM640.32 291.636l-27.267-15.138-.524-31.183 26.743-16.045 27.267 15.138.526 31.183-26.747 16.046zM616.75 274.28l23.497 13.046 23.046-13.83-.454-26.87-23.494-13.044L616.3 247.41l.452 26.87z"/><path d="M665.718 248.396l-27.282-15.144-.582-34.655 22.84 22.382 18.91 18.875-13.886 8.54zm-23.584-17.362l23.488 13.038 7.993-4.917-15.55-15.52-16.324-16 .394 23.4zM691.09 378.13l-27.27-15.137-.524-31.185 26.745-16.043 27.27 15.137.524 31.183-26.744 16.044zm-23.57-17.356l23.5 13.044 23.042-13.828-.45-26.87-23.498-13.045-23.044 13.828.45 26.87z"/><path d="M640.322 378.13l-27.27-15.137-.52-31.185 26.74-16.043 27.272 15.137.524 31.183-26.746 16.044zm-23.57-17.356l23.5 13.044 23.044-13.828-.45-26.87-23.498-13.045-23.046 13.828.45 26.87z"/><path d="M665.705 334.883l-27.267-15.136-.524-31.186 26.747-16.045 27.266 15.138.526 31.183-26.747 16.047zm-23.57-17.356l23.497 13.045 23.048-13.828-.452-26.87-23.494-13.045-23.05 13.827.452 26.87zM488.027 204.59l-27.268-15.136-.526-31.183 26.744-16.044 27.27 15.136.522 31.183-26.743 16.046zm-23.57-17.355l23.497 13.045L511 186.452l-.452-26.87-23.497-13.046-23.044 13.827.45 26.872zM564.176 247.837l-27.27-15.137-.525-31.184 26.745-16.044 27.268 15.136.525 31.184-26.742 16.045zm-23.572-17.356l23.497 13.047 23.05-13.83-.452-26.87-23.498-13.043-23.046 13.828.45 26.87z"/><path d="M513.41 247.837L486.14 232.7l-.522-31.184 26.743-16.044 27.27 15.136.525 31.184-26.746 16.045zm-23.57-17.356l23.496 13.047 23.045-13.83-.448-26.87-23.497-13.044-23.048 13.828.452 26.87z"/><path d="M538.793 204.59l-27.27-15.137-.522-31.183 26.743-16.045 27.27 15.136.523 31.184-26.743 16.047zm-23.57-17.355l23.495 13.045 23.048-13.828-.453-26.87-23.495-13.046-23.047 13.827.452 26.872zM437.262 204.59l-27.268-15.136-.524-31.183 26.744-16.044 27.268 15.136.524 31.183-26.744 16.046zm-23.57-17.355l23.498 13.045 23.045-13.828-.45-26.87-23.498-13.046-23.046 13.827.452 26.872zM335.73 204.59l-27.31-15.16.383-17.24 25.634-11.57 28.02-9.782v37.718L335.73 204.59zm-23.526-17.33l23.455 13.02 23.063-13.84v-30.345l-22.9 7.988-23.337 10.54-.282 12.636zM361.114 334.882l-27.268-15.135-.523-31.186 26.743-16.044 27.268 15.137.525 31.183-26.746 16.046zm-23.57-17.355l23.496 13.045 23.046-13.828-.45-26.87-23.498-13.045-23.046 13.827.45 26.87zM589.556 291.636l-27.266-15.138-.524-31.183 26.743-16.045 27.266 15.138.524 31.183-26.744 16.046zm-23.57-17.356l23.497 13.046 23.046-13.83-.452-26.87-23.496-13.044-23.046 13.828.45 26.87zM488.027 291.636l-27.27-15.138-.523-31.183 26.744-16.044 27.27 15.138.522 31.183-26.743 16.046zm-23.57-17.356l23.496 13.046L511 273.496l-.453-26.87-23.497-13.044-23.045 13.828.45 26.87z"/><path d="M564.176 334.882l-27.27-15.135-.525-31.186 26.745-16.044 27.268 15.137.525 31.183-26.742 16.046zm-23.573-17.355l23.498 13.045 23.047-13.828-.45-26.87-23.5-13.045-23.043 13.827.45 26.87z"/><path d="M513.41 334.882l-27.27-15.135-.524-31.186 26.744-16.044 27.267 15.137.526 31.183-26.744 16.046zm-23.572-17.355l23.497 13.045 23.046-13.828-.45-26.87-23.495-13.045-23.05 13.827.453 26.87z"/><path d="M538.79 291.636l-27.266-15.138-.524-31.183 26.743-16.045 27.27 15.138.523 31.183-26.745 16.046zm-23.568-17.356l23.496 13.046 23.048-13.83-.454-26.87-23.496-13.044-23.045 13.828.452 26.87zM462.644 248.39l-27.268-15.138-.523-31.183 26.743-16.045 27.268 15.136.523 31.185-26.743 16.044zm-23.57-17.356l23.5 13.044 23.044-13.827-.45-26.87-23.497-13.046-23.046 13.83.45 26.87zM361.114 248.39l-27.268-15.138-.523-31.183 26.743-16.045 27.268 15.136.525 31.185-26.746 16.044zm-23.57-17.356l23.496 13.044 23.046-13.827-.45-26.87-23.498-13.046-23.046 13.83.45 26.87z"/><path d="M437.262 291.636l-27.268-15.138-.524-31.183 26.744-16.044 27.268 15.138.524 31.183-26.744 16.046zm-23.57-17.356l23.498 13.046 23.045-13.83-.45-26.87-23.498-13.044-23.046 13.828.452 26.87z"/><path d="M386.496 291.636l-27.267-15.138-.525-31.183 26.743-16.044 27.268 15.138.524 31.183-26.744 16.046zm-23.57-17.356l23.497 13.046 23.046-13.83-.452-26.87-23.497-13.044-23.046 13.828.452 26.87z"/><path d="M411.88 248.39l-27.27-15.138-.523-31.183 26.744-16.045 27.27 15.136.523 31.185-26.744 16.044zm-23.57-17.356l23.497 13.044 23.046-13.827-.45-26.87-23.5-13.046-23.045 13.83.452 26.87zM234.2 291.636l-27.267-15.138-.524-31.183 26.744-16.044 27.268 15.138.524 31.183-26.745 16.046zm-23.57-17.356l23.498 13.046 23.047-13.83-.452-26.87-23.498-13.044-23.045 13.828.45 26.87zM310.35 334.882l-27.27-15.135-.523-31.186 26.743-16.044 27.268 15.137.524 31.183-26.743 16.046zm-23.572-17.355l23.498 13.045 23.046-13.828-.452-26.87-23.497-13.045-23.046 13.827.45 26.87z"/><path d="M284.966 291.636l-27.268-15.138-.523-31.183 26.743-16.044 27.267 15.138.524 31.183-26.744 16.046zm-23.57-17.356l23.498 13.046 23.046-13.83-.45-26.87-23.5-13.044-23.044 13.828.45 26.87zM284.966 377.732l-27.268-15.137-.523-31.183 26.743-16.045 27.267 15.137.524 31.183-26.744 16.045zm-23.57-17.355l23.498 13.045 23.046-13.828-.45-26.87-23.5-13.045-23.044 13.826.45 26.87zM183.436 377.732l-27.268-15.137-.524-31.183 26.743-16.045 27.268 15.137.524 31.183-26.744 16.045zm-23.57-17.355l23.496 13.045 23.046-13.828-.45-26.87-23.498-13.045-23.045 13.826.45 26.87z"/><path d="M259.584 420.98l-27.27-15.138-.523-31.183 26.745-16.046 27.267 15.137.524 31.184-26.742 16.045zm-23.57-17.356l23.497 13.045 23.047-13.83-.452-26.87-23.498-13.045-23.045 13.827.452 26.872z"/><path d="M208.818 420.98L181.55 405.84l-.523-31.183 26.744-16.046 27.27 15.137.523 31.184-26.745 16.045zm-23.57-17.356l23.498 13.045 23.046-13.83-.45-26.87-23.498-13.045-23.046 13.827.45 26.872z"/><path d="M234.2 377.732l-27.267-15.137-.524-31.183 26.744-16.045 27.268 15.137.524 31.183-26.745 16.045zm-23.57-17.355l23.498 13.045 23.047-13.828-.452-26.87-23.498-13.045-23.045 13.826.45 26.87zM335.73 637.18l-27.267-15.135-.524-31.184 26.743-16.043 27.27 15.14.523 31.18-26.745 16.044zm-23.57-17.353l23.498 13.043 23.046-13.826-.452-26.872-23.497-13.046-23.047 13.83.453 26.87z"/><path d="M361.114 594.395l-27.268-15.138-.523-31.183 26.743-16.045 27.268 15.137.525 31.18-26.746 16.048zm-23.57-17.356l23.496 13.043 23.046-13.828-.45-26.87-23.498-13.046-23.046 13.826.45 26.873z"/><path d="M310.35 594.395l-27.27-15.138-.523-31.183L309.3 532.03l27.268 15.137.524 31.18-26.743 16.048zm-23.572-17.356l23.498 13.043 23.046-13.828-.452-26.87-23.497-13.046-23.046 13.826.45 26.873zM234.2 637.18l-27.267-15.135-.524-31.184 26.744-16.043 27.268 15.14.524 31.18L234.2 637.18zm-23.57-17.353l23.498 13.043 23.047-13.826-.452-26.872-23.498-13.046-23.045 13.83.45 26.87z"/><path d="M284.966 637.18l-27.268-15.135-.523-31.184 26.743-16.043 27.267 15.14.524 31.18-26.744 16.044zm-23.57-17.353l23.498 13.043 23.046-13.826-.45-26.872-23.5-13.046-23.044 13.83.45 26.87zM284.966 464.227l-27.268-15.138-.523-31.184 26.743-16.046L311.185 417l.524 31.18-26.744 16.047zm-23.57-17.356l23.498 13.046 23.046-13.83-.45-26.87-23.5-13.043L260.946 420l.45 26.87zM183.436 464.227l-27.268-15.138-.524-31.184 26.743-16.046L209.655 417l.524 31.18-26.744 16.047zm-23.57-17.356l23.496 13.046 23.046-13.83-.45-26.87-23.498-13.043L159.415 420l.45 26.87z"/><path d="M259.584 507.474l-27.27-15.138-.523-31.185 26.745-16.044 27.267 15.138.524 31.184-26.742 16.046zm-23.57-17.355l23.497 13.042 23.047-13.827-.452-26.87-23.498-13.047-23.045 13.827.452 26.874z"/><path d="M234.2 464.227l-27.267-15.138-.524-31.184 26.744-16.046L260.422 417l.524 31.18-26.745 16.047zm-23.57-17.356l23.498 13.046 23.047-13.83-.452-26.87-23.498-13.043L210.18 420l.45 26.87zM284.966 551.146l-27.268-15.137-.523-31.185 26.743-16.045 27.267 15.14.524 31.18-26.744 16.046zm-23.57-17.353l23.498 13.044 23.046-13.83-.45-26.87-23.5-13.046-23.044 13.83.45 26.873zM183.436 551.146l-27.268-15.137-.524-31.185 26.743-16.045 27.268 15.14.524 31.18-26.744 16.046zm-23.57-17.353l23.496 13.044 23.046-13.83-.45-26.87-23.498-13.046-23.045 13.83.45 26.873z"/><path d="M259.584 594.396l-27.27-15.138-.523-31.185 26.745-16.045 27.267 15.138.524 31.183-26.742 16.046zm-23.57-17.355l23.497 13.046 23.047-13.83-.452-26.872-23.498-13.045-23.045 13.826.452 26.875z"/><path d="M208.818 594.396l-27.267-15.138-.523-31.185 26.744-16.045 27.27 15.138.523 31.183-26.745 16.046zm-23.57-17.355l23.498 13.046 23.046-13.83-.45-26.872-23.498-13.045-23.046 13.826.45 26.875z"/><path d="M234.2 551.146l-27.267-15.137-.524-31.185 26.744-16.045 27.268 15.14.524 31.18-26.745 16.046zm-23.57-17.353l23.498 13.044 23.047-13.83-.452-26.87-23.498-13.046-23.045 13.83.45 26.873zM449.784 597.518c-81.61 0-148.006-66.397-148.006-148.008 0-81.61 66.396-148.007 148.006-148.007S597.79 367.9 597.79 449.51c0 81.61-66.395 148.008-148.006 148.008zm0-210.13c-34.253 0-62.12 27.87-62.12 62.122 0 34.254 27.867 62.12 62.12 62.12s62.12-27.866 62.12-62.12-27.867-62.12-62.12-62.12z"/><path d="M449.783 771.705c-177.66 0-322.195-144.535-322.195-322.195s144.536-322.196 322.195-322.196c177.66 0 322.198 144.536 322.198 322.196S627.44 771.705 449.784 771.705zm0-618.253c-163.246 0-296.056 132.81-296.056 296.058s132.81 296.06 296.056 296.06 296.06-132.812 296.06-296.06c0-163.247-132.815-296.058-296.06-296.058z"/><g><path d="M141.27 430.268s-51.133 1.485-72.294 0c0 0-17.426 1.26-18.67-26.25L22.922 360.77s-16.18 9.125-7.47 86.49c0 0 32.365 37.536 54.77 35.047 0 0 35.052 6.46 71.05.117M758.55 465.73s51.12-1.986 72.29-.71c0 0 17.415-1.43 18.927 26.07l27.81 42.976s16.09-9.284 6.62-86.56c0 0-32.732-37.216-55.108-34.508 0 0-35.12-6.117-71.048.577M469.025 140.75s-1.487-51.133 0-72.293c0 0-1.26-17.427 26.252-18.672L538.522 22.4s-9.125-16.18-86.49-7.467c0 0-37.535 32.364-35.047 54.77 0 0-6.46 35.05-.118 71.048M433.564 758.032s1.986 51.12.708 72.29c0 0 1.43 17.415-26.068 18.93l-42.976 27.806s9.285 16.092 86.562 6.62c0 0 37.215-32.73 34.506-55.106 0 0 6.117-35.118-.577-71.048M195.78 272.92s-44.488-25.25-61.81-37.495c0 0-15.553-7.962-2.35-32.128l-.98-51.18s-18.568-.59-51.246 70.077c0 0 8.203 48.877 28.65 58.365 0 0 26.618 23.707 60.685 36.955M705.157 623.39s44.733 24.816 62.175 36.89c0 0 15.628 7.81 2.658 32.106l1.483 51.165s18.577.412 50.558-70.572c0 0-8.678-48.795-29.216-58.087 0 0-26.85-23.44-61.047-36.354M626.165 195.376s25.25-44.488 37.496-61.81c0 0 7.965-15.553 32.13-2.35l51.18-.98s.59-18.567-70.08-51.244c0 0-48.876 8.202-58.368 28.65 0 0-23.702 26.616-36.95 60.684M275.692 704.755s-24.816 44.733-36.89 62.176c0 0-7.808 15.63-32.103 2.658l-51.166 1.486s-.41 18.574 70.573 50.557c0 0 48.795-8.682 58.084-29.218 0 0 23.444-26.852 36.358-61.047M316.293 169.786s-26.09-44.002-35.053-63.228c0 0-9.55-14.63 13.91-29.056l24.546-44.92s-15.827-9.728-79.268 35.404c0 0-17.135 46.504-4.093 64.892 0 0 11.342 33.79 34.342 62.196M584.57 726.85s26.522 43.742 35.672 62.885c0 0 9.69 14.53-13.63 29.188l-24.103 45.16s15.927 9.57 78.92-36.18c0 0 16.68-46.668 3.46-64.93 0 0-11.675-33.677-34.958-61.858M728.418 316.065s43.997-26.092 63.226-35.055c0 0 14.63-9.55 29.063 13.91l44.913 24.545s9.73-15.822-35.404-79.266c0 0-46.503-17.137-64.892-4.098 0 0-33.787 11.347-62.195 34.346M171.35 584.346s-43.744 26.52-62.882 35.668c0 0-14.532 9.69-29.19-13.625l-45.155-24.105S24.55 598.21 70.3 661.205c0 0 46.67 16.678 64.927 3.46 0 0 33.68-11.678 61.86-34.955"/></g></svg>